<?xml version="1.0" encoding="utf-8"?>
<!-- Generator: Adobe Illustrator 17.0.2, SVG Export Plug-In . SVG Version: 6.00 Build 0)  -->
<!DOCTYPE svg PUBLIC "-//W3C//DTD SVG 1.1//EN" "http://www.w3.org/Graphics/SVG/1.1/DTD/svg11.dtd">
<svg version="1.1" id="Layer_1" xmlns="http://www.w3.org/2000/svg" xmlns:xlink="http://www.w3.org/1999/xlink" x="0px" y="0px"
	 width="60px" height="60px" viewBox="0 0 60 60" enable-background="new 0 0 60 60" xml:space="preserve">
<g>
	<g>
		<path fill="#0F6BB1" d="M59,60H1c-0.553,0-1-0.448-1-1s0.447-1,1-1h58c0.553,0,1,0.448,1,1S59.553,60,59,60z"/>
	</g>
	<g>
		<path fill="#0F6BB1" d="M13,60H5c-0.553,0-1-0.448-1-1V47c0-0.552,0.447-1,1-1h8c0.553,0,1,0.448,1,1v12
			C14,59.552,13.553,60,13,60z M6,58h6V48H6V58z"/>
	</g>
	<g>
		<path fill="#0F6BB1" d="M27,60h-8c-0.553,0-1-0.448-1-1V33c0-0.552,0.447-1,1-1h8c0.553,0,1,0.448,1,1v26
			C28,59.552,27.553,60,27,60z M20,58h6V34h-6V58z"/>
	</g>
	<g>
		<path fill="#0F6BB1" d="M41,60h-8c-0.553,0-1-0.448-1-1V39c0-0.552,0.447-1,1-1h8c0.553,0,1,0.448,1,1v20
			C42,59.552,41.553,60,41,60z M34,58h6V40h-6V58z"/>
	</g>
	<g>
		<path fill="#0F6BB1" d="M55,60h-8c-0.553,0-1-0.448-1-1V21c0-0.552,0.447-1,1-1h8c0.553,0,1,0.448,1,1v38
			C56,59.552,55.553,60,55,60z M48,58h6V22h-6V58z"/>
	</g>
	<g>
		<path fill="#0F6BB1" d="M53,8c-2.206,0-4-1.794-4-4s1.794-4,4-4s4,1.794,4,4S55.206,8,53,8z M53,2c-1.103,0-2,0.897-2,2
			s0.897,2,2,2s2-0.897,2-2S54.103,2,53,2z"/>
	</g>
	<g>
		<path fill="#0F6BB1" d="M38,26c-2.206,0-4-1.794-4-4s1.794-4,4-4s4,1.794,4,4S40.206,26,38,26z M38,20c-1.103,0-2,0.897-2,2
			c0,1.103,0.897,2,2,2s2-0.897,2-2C40,20.897,39.103,20,38,20z"/>
	</g>
	<g>
		<path fill="#0F6BB1" d="M23,20c-2.206,0-4-1.794-4-4s1.794-4,4-4s4,1.794,4,4S25.206,20,23,20z M23,14c-1.103,0-2,0.897-2,2
			s0.897,2,2,2s2-0.897,2-2S24.103,14,23,14z"/>
	</g>
	<g>
		<path fill="#0F6BB1" d="M8,33c-2.206,0-4-1.794-4-4s1.794-4,4-4s4,1.794,4,4S10.206,33,8,33z M8,27c-1.102,0-2,0.897-2,2
			c0,1.103,0.898,2,2,2s2-0.897,2-2C10,27.897,9.102,27,8,27z"/>
	</g>
	<g>
		<path fill="#0F6BB1" d="M10.26,28.042c-0.279,0-0.558-0.117-0.756-0.345c-0.361-0.417-0.316-1.049,0.101-1.411l10.478-9.081
			c0.417-0.361,1.048-0.317,1.411,0.101c0.361,0.417,0.316,1.049-0.101,1.411l-10.478,9.08
			C10.726,27.961,10.492,28.042,10.26,28.042z"/>
	</g>
	<g>
		<path fill="#0F6BB1" d="M35.216,21.887c-0.124,0-0.25-0.023-0.371-0.072l-9.433-3.774c-0.513-0.205-0.763-0.787-0.558-1.3
			c0.205-0.513,0.792-0.762,1.3-0.557l9.433,3.774c0.513,0.205,0.763,0.787,0.558,1.3C35.988,21.649,35.612,21.887,35.216,21.887z"
			/>
	</g>
	<g>
		<path fill="#0F6BB1" d="M39.913,20.704c-0.226,0-0.452-0.076-0.64-0.232c-0.424-0.354-0.481-0.984-0.128-1.408L50.313,5.662
			c0.354-0.424,0.983-0.482,1.409-0.128c0.424,0.353,0.481,0.984,0.128,1.408L40.683,20.344
			C40.484,20.582,40.2,20.704,39.913,20.704z"/>
	</g>
</g>
</svg>
