<?xml version="1.0" encoding="utf-8"?>
<!-- Generator: Adobe Illustrator 17.0.0, SVG Export Plug-In . SVG Version: 6.00 Build 0)  -->
<!DOCTYPE svg PUBLIC "-//W3C//DTD SVG 1.1//EN" "http://www.w3.org/Graphics/SVG/1.1/DTD/svg11.dtd">
<svg version="1.1" id="Layer_1" xmlns="http://www.w3.org/2000/svg" xmlns:xlink="http://www.w3.org/1999/xlink" x="0px" y="0px"
	 width="72px" height="72px" viewBox="0 0 72 72" enable-background="new 0 0 72 72" xml:space="preserve">
<g>
	<path d="M36,0C16.118,0,0,16.117,0,36s16.118,36,36,36s36-16.117,36-36S55.882,0,36,0z M36,63C21.112,63,9,50.889,9,36
		C9,21.112,21.112,9,36,9s27,12.112,27,27C63,50.889,50.888,63,36,63z"/>
	<path d="M53.467,44.068l-14.24-9.619V17.893c0-0.395-0.161-0.782-0.44-1.062c-0.279-0.279-0.666-0.44-1.061-0.44h-3.939
		c-0.396,0-0.781,0.16-1.06,0.44c-0.279,0.28-0.44,0.667-0.44,1.062v19.552c0,0.396,0.16,0.782,0.44,1.062
		c0.113,0.113,0.244,0.207,0.387,0.278l16.592,11.114c0.25,0.165,0.539,0.253,0.832,0.253c0.107,0,0.213-0.012,0.318-0.034
		c0.397-0.084,0.74-0.326,0.957-0.672l2.088-3.34C54.328,45.422,54.136,44.519,53.467,44.068z"/>
</g>
</svg>
