<?xml version="1.0" encoding="utf-8"?>
<!-- Generator: Adobe Illustrator 17.0.2, SVG Export Plug-In . SVG Version: 6.00 Build 0)  -->
<!DOCTYPE svg PUBLIC "-//W3C//DTD SVG 1.1//EN" "http://www.w3.org/Graphics/SVG/1.1/DTD/svg11.dtd">
<svg version="1.1" id="Layer_1" xmlns="http://www.w3.org/2000/svg" xmlns:xlink="http://www.w3.org/1999/xlink" x="0px" y="0px"
	 width="46px" height="60px" viewBox="0 0 46 60" enable-background="new 0 0 46 60" xml:space="preserve">
<g>
	<g>
		<path fill="#3FB487" d="M11,44.254c-0.553,0-1-0.448-1-1V2H5C4.447,2,4,1.552,4,1s0.447-1,1-1h6c0.553,0,1,0.448,1,1v42.254
			C12,43.806,11.553,44.254,11,44.254z"/>
	</g>
	<g>
		<path fill="#3FB487" d="M45,60c-0.256,0-0.512-0.098-0.707-0.293L40.586,56H15.928c-0.553,0-1-0.448-1-1s0.447-1,1-1H41
			c0.266,0,0.52,0.105,0.707,0.293l4,4c0.391,0.391,0.391,1.024,0,1.414C45.512,59.902,45.256,60,45,60z"/>
	</g>
	<g>
		<path fill="#3FB487" d="M43,50H17c-0.553,0-1-0.448-1-1V25c0-0.552,0.447-1,1-1h26c0.553,0,1,0.448,1,1v24
			C44,49.552,43.553,50,43,50z M18,48h24V26H18V48z"/>
	</g>
	<g>
		<path fill="#3FB487" d="M35,26H17c-0.553,0-1-0.448-1-1V11c0-0.552,0.447-1,1-1h18c0.553,0,1,0.448,1,1v14
			C36,25.552,35.553,26,35,26z M18,24h16V12H18V24z"/>
	</g>
	<g>
		<path fill="#3FB487" d="M39,46h-7c-0.553,0-1-0.448-1-1s0.447-1,1-1h7c0.553,0,1,0.448,1,1S39.553,46,39,46z"/>
	</g>
	<g>
		<path fill="#3FB487" d="M25,22h-4c-0.553,0-1-0.448-1-1s0.447-1,1-1h4c0.553,0,1,0.448,1,1S25.553,22,25,22z"/>
	</g>
	<g>
		<path fill="#3FB487" d="M9,60c-4.963,0-9-4.037-9-9s4.037-9,9-9s9,4.037,9,9S13.963,60,9,60z M9,44c-3.859,0-7,3.14-7,7
			s3.141,7,7,7s7-3.14,7-7S12.859,44,9,44z"/>
	</g>
</g>
</svg>
