<?xml version="1.0" encoding="utf-8"?>
<!-- Generator: Adobe Illustrator 17.0.2, SVG Export Plug-In . SVG Version: 6.00 Build 0)  -->
<!DOCTYPE svg PUBLIC "-//W3C//DTD SVG 1.1 Tiny//EN" "http://www.w3.org/Graphics/SVG/1.1/DTD/svg11-tiny.dtd">
<svg version="1.1" baseProfile="tiny" id="Layer_1" xmlns="http://www.w3.org/2000/svg" xmlns:xlink="http://www.w3.org/1999/xlink"
	 x="0px" y="0px" width="60px" height="52px" viewBox="0 0 60 52" xml:space="preserve">
<g>
	<g>
		<path fill="#3FB487" d="M59,48h-6v-2h5v-8.586L48.586,28H41v-2h8c0.266,0,0.52,0.105,0.707,0.293l10,10
			C59.895,36.48,60,36.735,60,37v10C60,47.552,59.553,48,59,48z"/>
	</g>
	<g>
		<path fill="#3FB487" d="M41,48H28c-0.553,0-1-0.448-1-1s0.447-1,1-1h12V22H29c-0.553,0-1-0.448-1-1s0.447-1,1-1h12
			c0.553,0,1,0.448,1,1v26C42,47.552,41.553,48,41,48z"/>
	</g>
	<g>
		<path fill="#3FB487" d="M20,48h-7c-0.553,0-1-0.448-1-1V28c0-0.552,0.447-1,1-1s1,0.448,1,1v18h6c0.553,0,1,0.448,1,1
			S20.553,48,20,48z"/>
	</g>
	<g>
		<path fill="#3FB487" d="M17,14h-4c-0.553,0-1-0.448-1-1V7c0-0.552,0.447-1,1-1s1,0.448,1,1v5h3c0.553,0,1,0.448,1,1
			S17.553,14,17,14z"/>
	</g>
	<g>
		<path fill="#3FB487" d="M9,36H1c-0.553,0-1-0.448-1-1s0.447-1,1-1h8c0.553,0,1,0.448,1,1S9.553,36,9,36z"/>
	</g>
	<g>
		<path fill="#3FB487" d="M9,40H5c-0.553,0-1-0.448-1-1s0.447-1,1-1h4c0.553,0,1,0.448,1,1S9.553,40,9,40z"/>
	</g>
	<g>
		<path fill="#3FB487" d="M9,44H7c-0.553,0-1-0.448-1-1s0.447-1,1-1h2c0.553,0,1,0.448,1,1S9.553,44,9,44z"/>
	</g>
	<g>
		<path fill="#3FB487" d="M59,38H41c-0.553,0-1-0.448-1-1s0.447-1,1-1h18c0.553,0,1,0.448,1,1S59.553,38,59,38z"/>
	</g>
	<g>
		<path fill="#3FB487" d="M13,24C6.383,24,1,18.617,1,12S6.383,0,13,0s12,5.383,12,12S19.617,24,13,24z M13,2C7.486,2,3,6.486,3,12
			s4.486,10,10,10s10-4.486,10-10S18.514,2,13,2z"/>
	</g>
	<g>
		<rect x="41" y="46" fill="#3FB487" width="4" height="2"/>
	</g>
	<g>
		<path fill="#3FB487" d="M49,52c-2.757,0-5-2.243-5-5s2.243-5,5-5s5,2.243,5,5S51.757,52,49,52z M49,44c-1.654,0-3,1.346-3,3
			s1.346,3,3,3s3-1.346,3-3S50.654,44,49,44z"/>
	</g>
	<g>
		<path fill="#3FB487" d="M24,52c-2.757,0-5-2.243-5-5s2.243-5,5-5s5,2.243,5,5S26.757,52,24,52z M24,44c-1.654,0-3,1.346-3,3
			s1.346,3,3,3s3-1.346,3-3S25.654,44,24,44z"/>
	</g>
</g>
</svg>
