<?xml version="1.0" encoding="utf-8"?>
<!-- Generator: Adobe Illustrator 17.0.2, SVG Export Plug-In . SVG Version: 6.00 Build 0)  -->
<!DOCTYPE svg PUBLIC "-//W3C//DTD SVG 1.1//EN" "http://www.w3.org/Graphics/SVG/1.1/DTD/svg11.dtd">
<svg version="1.1" id="Layer_1" xmlns="http://www.w3.org/2000/svg" xmlns:xlink="http://www.w3.org/1999/xlink" x="0px" y="0px"
	 width="60px" height="60px" viewBox="0 0 60 60" enable-background="new 0 0 60 60" xml:space="preserve">
<g>
	<g>
		<g>
			<path fill="#0F6BB1" d="M40,60H0v-5c0-2.835,1.755-5.217,4.581-6.215L14,45.304v-4.404h2v5.797l-10.739,3.97
				C3.214,51.389,2,53.007,2,55v3h36v-3c0-1.917-1.323-3.577-3.453-4.329L24,46.691v-6.298h2v4.916l9.233,3.484
				C38.166,49.829,40,52.21,40,55V60z"/>
		</g>
		<g>
			<path fill="#0F6BB1" d="M19.648,43.271c-6.04,0-10.955-5.747-10.955-12.811c0-7.062,4.914-12.808,10.955-12.808
				c6.04,0,10.954,5.746,10.954,12.808C30.602,37.524,25.689,43.271,19.648,43.271z M19.648,19.652
				c-4.937,0-8.955,4.849-8.955,10.808c0,5.961,4.017,10.811,8.955,10.811c4.937,0,8.954-4.85,8.954-10.811
				C28.602,24.501,24.585,19.652,19.648,19.652z"/>
		</g>
		<g>
			<path fill="#0F6BB1" d="M26.948,30.646c-2.378,0-4.25-1.037-5.838-3.222c-1.701,1.767-4.7,3.053-7.435,3.053
				c-1.587,0-2.957-0.328-4.313-1.031l0.921-1.775c1.075,0.558,2.121,0.806,3.392,0.806c2.605,0,5.695-1.526,6.611-3.265
				l0.844-1.601l0.906,1.567c1.699,2.938,3.488,3.869,6.384,3.317c0.283-0.054,0.528-0.052,0.728-0.049
				c0.095,0.001,0.192,0.004,0.295-0.008l0.241,1.985c-0.194,0.024-0.378,0.023-0.559,0.023c-0.107-0.001-0.213-0.008-0.331,0.014
				C28.148,30.583,27.532,30.646,26.948,30.646z"/>
		</g>
	</g>
	<g>
		<path fill="#0F6BB1" d="M43.223,43c-2.649,0-4.804-2.155-4.804-4.804c0-2.649,2.155-4.805,4.804-4.805
			c2.649,0,4.805,2.156,4.805,4.805C48.027,40.845,45.872,43,43.223,43z M43.223,35.391c-1.546,0-2.804,1.258-2.804,2.805
			c0,1.546,1.258,2.804,2.804,2.804c1.546,0,2.805-1.258,2.805-2.804C46.027,36.649,44.769,35.391,43.223,35.391z"/>
	</g>
	<g>
		<path fill="#0F6BB1" d="M33.767,44c-1.462,0-2.652-1.19-2.652-2.652s1.19-2.652,2.652-2.652c1.462,0,2.652,1.189,2.652,2.652
			S35.229,44,33.767,44z M33.767,40.696c-0.36,0-0.652,0.292-0.652,0.652c0,0.359,0.292,0.652,0.652,0.652
			c0.359,0,0.652-0.292,0.652-0.652C34.419,40.989,34.126,40.696,33.767,40.696z"/>
	</g>
	<g>
		<path fill="#0F6BB1" d="M33.767,17.522c-1.462,0-2.652-1.19-2.652-2.652s1.19-2.652,2.652-2.652c1.462,0,2.652,1.19,2.652,2.652
			S35.229,17.522,33.767,17.522z M33.767,14.218c-0.36,0-0.652,0.292-0.652,0.652c0,0.359,0.292,0.652,0.652,0.652
			c0.359,0,0.652-0.292,0.652-0.652C34.419,14.51,34.126,14.218,33.767,14.218z"/>
	</g>
	<g>
		<path fill="#0F6BB1" d="M41.332,17.522c-1.462,0-2.652-1.19-2.652-2.652s1.19-2.652,2.652-2.652c1.462,0,2.652,1.19,2.652,2.652
			S42.794,17.522,41.332,17.522z M41.332,14.218c-0.36,0-0.652,0.292-0.652,0.652c0,0.359,0.292,0.652,0.652,0.652
			c0.359,0,0.652-0.292,0.652-0.652C41.984,14.51,41.691,14.218,41.332,14.218z"/>
	</g>
	<g>
		<path fill="#0F6BB1" d="M48.898,17.522c-1.462,0-2.652-1.19-2.652-2.652s1.19-2.652,2.652-2.652c1.462,0,2.651,1.19,2.651,2.652
			S50.359,17.522,48.898,17.522z M48.898,14.218c-0.36,0-0.652,0.292-0.652,0.652c0,0.359,0.292,0.652,0.652,0.652
			c0.359,0,0.651-0.292,0.651-0.652C49.549,14.51,49.257,14.218,48.898,14.218z"/>
	</g>
	<g>
		<path fill="#0F6BB1" d="M40.071,31c-3.104,0-5.862-1.661-7.199-4.335l1.789-0.895C35.657,27.763,37.73,29,40.071,29
			c2.353,0,4.373-1.728,5.479-3.347l0.298-0.436h0.528c3.688,0,6.729-1.186,8.798-3.429C56.996,19.812,58,17.087,58,14.117
			C58,8.096,53.92,2,46.123,2c-3.098,0-5.521,1.073-7.857,3.48l-0.51,0.525l-0.655-0.327c-2.831-1.417-5.98-1.458-8.867-0.121
			c-2.894,1.341-5.06,3.935-5.792,6.937l-1.943-0.474c0.875-3.588,3.453-6.683,6.895-8.277c3.179-1.474,6.765-1.523,9.945-0.159
			C39.907,1.142,42.716,0,46.123,0C55.136,0,60,7.273,60,14.117c0,3.474-1.192,6.68-3.356,9.027c-2.357,2.556-5.72,3.956-9.75,4.066
			C45.101,29.593,42.583,31,40.071,31z"/>
	</g>
</g>
</svg>
